<svg width="50" height="50" viewBox="0 0 50 50" fill="none" xmlns="http://www.w3.org/2000/svg">
<circle cx="25" cy="25" r="25" fill="#1C4342"/>
<path d="M15.3977 15.3977C15.9281 14.8674 16.7879 14.8674 17.3182 15.3977L34.6023 32.6818C35.1326 33.2121 35.1326 34.0719 34.6023 34.6023C34.0719 35.1326 33.2121 35.1326 32.6818 34.6023L15.3977 17.3182C14.8674 16.7879 14.8674 15.9281 15.3977 15.3977Z" fill="white"/>
<path d="M15.3977 34.6023C14.8674 34.0719 14.8674 33.2121 15.3977 32.6818L32.6818 15.3977C33.2121 14.8674 34.072 14.8674 34.6023 15.3977C35.1326 15.9281 35.1326 16.7879 34.6023 17.3182L17.3182 34.6023C16.7879 35.1326 15.9281 35.1326 15.3977 34.6023Z" fill="white"/>
</svg>
