<svg width="20" height="20" viewBox="0 0 20 20" fill="none" xmlns="http://www.w3.org/2000/svg">
<rect x="0.5" y="0.5" width="19" height="19" rx="9.5" stroke="#E3AC75"/>
<mask id="path-2-inside-1_235_2361" fill="white">
<path d="M9.2498 6.7998L12.3998 9.9998L11.9498 10.4569L8.7998 7.25695L9.2498 6.7998Z"/>
<path d="M12.3998 9.9998L9.2498 13.1998L8.7998 12.7427L11.9498 9.54266L12.3998 9.9998Z"/>
</mask>
<path d="M9.2498 6.7998L12.3998 9.9998L11.9498 10.4569L8.7998 7.25695L9.2498 6.7998Z" fill="white"/>
<path d="M12.3998 9.9998L9.2498 13.1998L8.7998 12.7427L11.9498 9.54266L12.3998 9.9998Z" fill="white"/>
<path d="M9.2498 6.7998L9.96246 6.09829L9.2498 5.37432L8.53715 6.09829L9.2498 6.7998ZM12.3998 9.9998L13.1125 10.7013L13.803 9.9998L13.1125 9.29829L12.3998 9.9998ZM11.9498 10.4569L11.2372 11.1585L11.9498 11.8824L12.6625 11.1585L11.9498 10.4569ZM8.7998 7.25695L8.08715 6.55543L7.3966 7.25695L8.08715 7.95846L8.7998 7.25695ZM9.2498 13.1998L8.53715 13.9013L9.2498 14.6253L9.96246 13.9013L9.2498 13.1998ZM8.7998 12.7427L8.08715 12.0411L7.3966 12.7427L8.08715 13.4442L8.7998 12.7427ZM11.9498 9.54266L12.6625 8.84114L11.9498 8.11718L11.2372 8.84114L11.9498 9.54266ZM8.53715 7.50132L11.6872 10.7013L13.1125 9.29829L9.96246 6.09829L8.53715 7.50132ZM11.6872 9.29829L11.2372 9.75543L12.6625 11.1585L13.1125 10.7013L11.6872 9.29829ZM12.6625 9.75543L9.51246 6.55543L8.08715 7.95846L11.2372 11.1585L12.6625 9.75543ZM9.51246 7.95846L9.96246 7.50132L8.53715 6.09829L8.08715 6.55543L9.51246 7.95846ZM11.6872 9.29829L8.53715 12.4983L9.96246 13.9013L13.1125 10.7013L11.6872 9.29829ZM9.96246 12.4983L9.51246 12.0411L8.08715 13.4442L8.53715 13.9013L9.96246 12.4983ZM9.51246 13.4442L12.6625 10.2442L11.2372 8.84114L8.08715 12.0411L9.51246 13.4442ZM11.2372 10.2442L11.6872 10.7013L13.1125 9.29829L12.6625 8.84114L11.2372 10.2442Z" fill="#E3AC75" mask="url(#path-2-inside-1_235_2361)"/>
</svg>
