<svg width="20" height="20" viewBox="0 0 20 20" fill="none" xmlns="http://www.w3.org/2000/svg">
<rect x="19.5" y="0.5" width="19" height="19" rx="9.5" transform="rotate(90 19.5 0.5)" stroke="#E3AC75"/>
<mask id="path-2-inside-1_182_1064" fill="white">
<path d="M13.2 9.2498L10 12.3998L9.54287 11.9498L12.7429 8.7998L13.2 9.2498Z"/>
<path d="M10 12.3998L6.80001 9.2498L7.25715 8.7998L10.4572 11.9498L10 12.3998Z"/>
</mask>
<path d="M13.2 9.2498L10 12.3998L9.54287 11.9498L12.7429 8.7998L13.2 9.2498Z" fill="white"/>
<path d="M10 12.3998L6.80001 9.2498L7.25715 8.7998L10.4572 11.9498L10 12.3998Z" fill="white"/>
<path d="M13.2 9.2498L13.9015 9.96246L14.6255 9.2498L13.9015 8.53715L13.2 9.2498ZM10 12.3998L9.29849 13.1125L10 13.803L10.7015 13.1125L10 12.3998ZM9.54287 11.9498L8.84135 11.2372L8.11739 11.9498L8.84135 12.6625L9.54287 11.9498ZM12.7429 8.7998L13.4444 8.08715L12.7429 7.3966L12.0414 8.08715L12.7429 8.7998ZM6.80001 9.2498L6.0985 8.53715L5.37453 9.2498L6.09849 9.96246L6.80001 9.2498ZM7.25715 8.7998L7.95867 8.08715L7.25716 7.3966L6.55564 8.08715L7.25715 8.7998ZM10.4572 11.9498L11.1587 12.6625L11.8826 11.9498L11.1587 11.2372L10.4572 11.9498ZM12.4985 8.53715L9.29849 11.6872L10.7015 13.1125L13.9015 9.96246L12.4985 8.53715ZM10.7015 11.6872L10.2444 11.2372L8.84135 12.6625L9.29849 13.1125L10.7015 11.6872ZM10.2444 12.6625L13.4444 9.51246L12.0414 8.08715L8.84135 11.2372L10.2444 12.6625ZM12.0414 9.51246L12.4985 9.96246L13.9015 8.53715L13.4444 8.08715L12.0414 9.51246ZM10.7015 11.6872L7.50153 8.53715L6.09849 9.96246L9.29849 13.1125L10.7015 11.6872ZM7.50153 9.96246L7.95867 9.51246L6.55564 8.08715L6.0985 8.53715L7.50153 9.96246ZM6.55564 9.51246L9.75564 12.6625L11.1587 11.2372L7.95867 8.08715L6.55564 9.51246ZM9.75564 11.2372L9.29849 11.6872L10.7015 13.1125L11.1587 12.6625L9.75564 11.2372Z" fill="#E3AC75" mask="url(#path-2-inside-1_182_1064)"/>
</svg>
