<svg width="48" height="48" viewBox="0 0 48 48" fill="none" xmlns="http://www.w3.org/2000/svg">
<circle cx="24" cy="24" r="23" stroke="#333333" stroke-width="2"/>
<path d="M29.3766 12H18.623C14.9711 12 12 14.9712 12 18.6231V29.3768C12 33.0288 14.9711 35.9999 18.623 35.9999H29.3766C33.0288 35.9999 35.9999 33.0287 35.9999 29.3768V18.6231C36 14.9712 33.0288 12 29.3766 12ZM33.8706 29.3768C33.8706 31.8547 31.8547 33.8705 29.3768 33.8705H18.623C16.1452 33.8706 14.1294 31.8547 14.1294 29.3768V18.6231C14.1294 16.1453 16.1452 14.1294 18.623 14.1294H29.3766C31.8545 14.1294 33.8705 16.1453 33.8705 18.6231V29.3768H33.8706Z" fill="#333333"/>
<path d="M23.9998 17.8162C20.5898 17.8162 17.8157 20.5903 17.8157 24.0003C17.8157 27.4102 20.5898 30.1842 23.9998 30.1842C27.4098 30.1842 30.184 27.4102 30.184 24.0003C30.184 20.5903 27.4098 17.8162 23.9998 17.8162ZM23.9998 28.0547C21.7641 28.0547 19.9451 26.2359 19.9451 24.0002C19.9451 21.7643 21.764 19.9454 23.9998 19.9454C26.2357 19.9454 28.0546 21.7643 28.0546 24.0002C28.0546 26.2359 26.2355 28.0547 23.9998 28.0547Z" fill="#333333"/>
<path d="M30.4434 16.0105C30.0331 16.0105 29.6301 16.1766 29.3404 16.4676C29.0492 16.7572 28.8818 17.1604 28.8818 17.572C28.8818 17.9824 29.0493 18.3855 29.3404 18.6765C29.63 18.9661 30.0331 19.1336 30.4434 19.1336C30.8551 19.1336 31.2568 18.9661 31.5478 18.6765C31.8388 18.3855 32.0049 17.9823 32.0049 17.572C32.0049 17.1604 31.8388 16.7572 31.5478 16.4676C31.2582 16.1766 30.8551 16.0105 30.4434 16.0105Z" fill="#333333"/>
</svg>
