<svg width="178" height="40" viewBox="0 0 178 40" fill="none" xmlns="http://www.w3.org/2000/svg">
<path d="M5.52548e-07 0H42.4371V8.63636H5.52548e-07V0Z" fill="#E3AC75"/>
<path d="M8.12625 31.3636H34.3108V40H8.12625V31.3636Z" fill="#E3AC75"/>
<path d="M42.4371 8.63636V15H33.8594V8.63636H42.4371Z" fill="#E3AC75"/>
<path d="M8.57771 8.63636V15H0L5.52548e-07 8.63636H8.57771Z" fill="#E3AC75"/>
<path d="M15.801 8.63636H26.1846L15.801 20V8.63636Z" fill="#E3AC75"/>
<path d="M26.1846 31.3636H15.801L26.1846 20V31.3636Z" fill="#E3AC75"/>
<path d="M68.2404 7.7056H64.5343V16H62.0305V7.7056H58.3243V5.8336H68.2404V7.7056Z" fill="#E3AC75"/>
<path d="M79.3814 16H69.7906V5.8336H79.0985V7.6624H72.2944V9.952H78.8721V11.7664H72.2944V14.1856H79.3814V16Z" fill="#E3AC75"/>
<path d="M81.2768 5.8336H87.4868C88.2695 5.8336 88.9296 5.9248 89.4671 6.1072C90.0141 6.28 90.4479 6.6448 90.7686 7.2016C91.0609 7.6816 91.2071 8.2864 91.2071 9.016C91.2071 9.88 90.9855 10.5712 90.5422 11.0896C90.1556 11.5408 89.7123 11.8336 89.2125 11.968C88.7127 12.1024 88.0479 12.1696 87.218 12.1696H83.7381V16H81.2768V5.8336ZM83.7381 7.5904V10.384H86.8078C87.3924 10.384 87.798 10.336 88.0243 10.24C88.4864 10.048 88.7174 9.64 88.7174 9.016C88.7174 8.6416 88.6137 8.3104 88.4062 8.0224C88.1987 7.7344 87.864 7.5904 87.4019 7.5904H83.7381Z" fill="#E3AC75"/>
<path d="M93.0669 5.8336H99.2769C100.06 5.8336 100.72 5.9248 101.257 6.1072C101.804 6.28 102.238 6.6448 102.559 7.2016C102.851 7.6816 102.997 8.2864 102.997 9.016C102.997 9.88 102.776 10.5712 102.332 11.0896C101.946 11.5408 101.502 11.8336 101.003 11.968C100.503 12.1024 99.838 12.1696 99.0081 12.1696H95.5283V16H93.0669V5.8336ZM95.5283 7.5904V10.384H98.5979C99.1826 10.384 99.5881 10.336 99.8144 10.24C100.276 10.048 100.508 9.64 100.508 9.016C100.508 8.6416 100.404 8.3104 100.196 8.0224C99.9889 7.7344 99.6541 7.5904 99.192 7.5904H95.5283Z" fill="#E3AC75"/>
<path d="M104.553 16V5.8336H106.93V12.3424L113.295 6.9856V5.8336H115.672V16H113.295V9.4336L106.93 14.7904V16H104.553Z" fill="#E3AC75"/>
<path d="M127.136 7.7056H123.43V16H120.926V7.7056H117.22V5.8336H127.136V7.7056Z" fill="#E3AC75"/>
<path d="M127.791 10.9168C127.791 9.9664 127.961 9.136 128.3 8.4256C128.64 7.7056 129.097 7.144 129.672 6.7408C130.257 6.328 130.898 6.0208 131.596 5.8192C132.303 5.6176 133.058 5.5168 133.859 5.5168C134.68 5.5168 135.439 5.608 136.137 5.7904C136.844 5.9728 137.495 6.2608 138.089 6.6544C138.692 7.048 139.169 7.6 139.518 8.3104C139.867 9.0208 140.041 9.856 140.041 10.816C140.041 12.5248 139.508 13.8736 138.443 14.8624C137.386 15.8416 135.887 16.3312 133.944 16.3312C132.002 16.3312 130.488 15.8416 129.403 14.8624C128.328 13.8832 127.791 12.568 127.791 10.9168ZM130.365 10.9888C130.365 11.4208 130.431 11.8384 130.563 12.2416C130.695 12.6352 130.893 13.0096 131.158 13.3648C131.431 13.7104 131.803 13.9888 132.275 14.2C132.756 14.4016 133.303 14.5024 133.916 14.5024C134.538 14.5024 135.081 14.4016 135.543 14.2C136.005 13.9888 136.354 13.744 136.589 13.4656C136.835 13.1776 137.028 12.8512 137.169 12.4864C137.32 12.1216 137.41 11.824 137.438 11.5936C137.476 11.3536 137.495 11.1328 137.495 10.9312C137.495 9.952 137.179 9.112 136.547 8.4112C135.925 7.7008 135.048 7.3456 133.916 7.3456C132.765 7.3456 131.884 7.7104 131.271 8.44C130.667 9.16 130.365 10.0096 130.365 10.9888Z" fill="#E3AC75"/>
<path d="M142.092 5.8336H148.302C149.085 5.8336 149.745 5.9248 150.283 6.1072C150.83 6.28 151.263 6.6448 151.584 7.2016C151.876 7.6816 152.023 8.2864 152.023 9.016C152.023 9.88 151.801 10.5712 151.358 11.0896C150.971 11.5408 150.528 11.8336 150.028 11.968C149.528 12.1024 148.863 12.1696 148.033 12.1696H144.554V16H142.092V5.8336ZM144.554 7.5904V10.384H147.623C148.208 10.384 148.613 10.336 148.84 10.24C149.302 10.048 149.533 9.64 149.533 9.016C149.533 8.6416 149.429 8.3104 149.222 8.0224C149.014 7.7344 148.679 7.5904 148.217 7.5904H144.554Z" fill="#E3AC75"/>
<path d="M153.578 16V5.8336H155.955V12.3424L162.32 6.9856V5.8336H164.697V16H162.32V9.4336L155.955 14.7904V16H153.578Z" fill="#E3AC75"/>
<path d="M175.496 10.2256V7.7056H171.451C170.526 7.7056 170.064 8.1424 170.064 9.016C170.064 9.8224 170.526 10.2256 171.451 10.2256H175.496ZM178 5.8336V16H175.496V11.9968H172.356C172.026 11.9968 171.729 12.0496 171.465 12.1552C171.21 12.2512 171.007 12.3664 170.856 12.5008C170.715 12.6256 170.588 12.8032 170.474 13.0336C170.361 13.264 170.281 13.4656 170.234 13.6384C170.187 13.8016 170.135 14.0128 170.078 14.272C170.031 14.5216 169.984 14.7232 169.937 14.8768C169.899 15.0304 169.819 15.2176 169.696 15.4384C169.583 15.6592 169.437 15.8464 169.258 16H166.514C166.806 15.7312 167.051 15.4336 167.249 15.1072C167.447 14.7808 167.575 14.5264 167.631 14.344C167.688 14.1616 167.759 13.912 167.843 13.5952C167.909 13.3264 167.966 13.1152 168.013 12.9616C168.07 12.7984 168.15 12.5968 168.254 12.3568C168.367 12.1168 168.508 11.9248 168.678 11.7808C168.848 11.6368 169.041 11.536 169.258 11.4784C168.683 11.3632 168.254 11.0992 167.971 10.6864C167.697 10.264 167.56 9.7552 167.56 9.16C167.56 8.0656 167.876 7.24 168.508 6.6832C169.14 6.1168 169.975 5.8336 171.012 5.8336H178Z" fill="#E3AC75"/>
<path d="M59.2438 34.4V24.2336H61.6202V30.7424L67.9858 25.3856V24.2336H70.3623V34.4H67.9858V27.8336L61.6202 33.1904V34.4H59.2438Z" fill="#E3AC75"/>
<path d="M83.439 34.4H80.9352V26.1056H75.3335V34.4H72.8297V24.2336H83.439V34.4Z" fill="#E3AC75"/>
<path d="M85.4377 29.3168C85.4377 28.3664 85.6075 27.536 85.947 26.8256C86.2865 26.1056 86.7438 25.544 87.3191 25.1408C87.9038 24.728 88.5451 24.4208 89.2429 24.2192C89.9502 24.0176 90.7046 23.9168 91.5062 23.9168C92.3267 23.9168 93.0858 24.008 93.7837 24.1904C94.491 24.3728 95.1417 24.6608 95.7358 25.0544C96.3393 25.448 96.8156 26 97.1645 26.7104C97.5134 27.4208 97.6879 28.256 97.6879 29.216C97.6879 30.9248 97.1551 32.2736 96.0894 33.2624C95.0332 34.2416 93.5338 34.7312 91.5911 34.7312C89.6484 34.7312 88.1348 34.2416 87.0503 33.2624C85.9753 32.2832 85.4377 30.968 85.4377 29.3168ZM88.0122 29.3888C88.0122 29.8208 88.0783 30.2384 88.2103 30.6416C88.3423 31.0352 88.5403 31.4096 88.8044 31.7648C89.0779 32.1104 89.4504 32.3888 89.9219 32.6C90.4029 32.8016 90.9498 32.9024 91.5628 32.9024C92.1852 32.9024 92.7275 32.8016 93.1896 32.6C93.6517 32.3888 94.0006 32.144 94.2364 31.8656C94.4815 31.5776 94.6749 31.2512 94.8163 30.8864C94.9672 30.5216 95.0568 30.224 95.0851 29.9936C95.1228 29.7536 95.1417 29.5328 95.1417 29.3312C95.1417 28.352 94.8258 27.512 94.1939 26.8112C93.5715 26.1008 92.6945 25.7456 91.5628 25.7456C90.4123 25.7456 89.5306 26.1104 88.9176 26.84C88.314 27.56 88.0122 28.4096 88.0122 29.3888Z" fill="#E3AC75"/>
<path d="M108.736 26.1056H105.03V34.4H102.526V26.1056H98.8197V24.2336H108.736V26.1056Z" fill="#E3AC75"/>
<path d="M119.877 34.4H110.286V24.2336H119.594V26.0624H112.79V28.352H119.368V30.1664H112.79V32.5856H119.877V34.4Z" fill="#E3AC75"/>
<path d="M121.772 24.2336H124.276V28.064H127.091C127.402 28.064 127.676 28.0208 127.911 27.9344C128.157 27.8384 128.35 27.7328 128.491 27.6176C128.633 27.5024 128.765 27.3296 128.887 27.0992C129.019 26.8688 129.109 26.6816 129.156 26.5376C129.213 26.3936 129.284 26.1776 129.368 25.8896C129.585 25.208 129.835 24.656 130.118 24.2336H132.707C132.613 24.3488 132.523 24.4688 132.438 24.5936C132.363 24.7088 132.292 24.8288 132.226 24.9536C132.16 25.0784 132.099 25.1888 132.042 25.2848C131.995 25.3808 131.943 25.5008 131.886 25.6448C131.839 25.7792 131.801 25.88 131.773 25.9472C131.754 26.0144 131.721 26.1152 131.674 26.2496C131.636 26.384 131.613 26.4656 131.603 26.4944C131.585 26.5424 131.547 26.6528 131.49 26.8256C131.434 26.9984 131.391 27.1232 131.363 27.2C131.344 27.2672 131.302 27.3824 131.236 27.5456C131.179 27.6992 131.122 27.8144 131.066 27.8912C131.019 27.968 130.948 28.0688 130.854 28.1936C130.769 28.3088 130.679 28.4048 130.585 28.4816C130.491 28.5488 130.377 28.6208 130.245 28.6976C130.113 28.7648 129.972 28.8224 129.821 28.8704C130.057 28.9184 130.274 28.9952 130.472 29.1008C130.67 29.1968 130.835 29.2976 130.967 29.4032C131.099 29.4992 131.222 29.6432 131.335 29.8352C131.457 30.0272 131.547 30.1808 131.603 30.296C131.669 30.4112 131.735 30.5936 131.801 30.8432C131.877 31.0928 131.924 31.2656 131.943 31.3616C131.971 31.448 132.014 31.6208 132.07 31.88C132.268 32.7248 132.622 33.5648 133.131 34.4H130.543C130.156 33.8336 129.868 33.1328 129.68 32.2976C129.623 32.048 129.581 31.88 129.552 31.7936C129.533 31.7072 129.486 31.5536 129.411 31.3328C129.345 31.112 129.279 30.9584 129.213 30.872C129.156 30.776 129.062 30.656 128.93 30.512C128.807 30.3584 128.671 30.2528 128.52 30.1952C128.378 30.128 128.199 30.0704 127.982 30.0224C127.765 29.9648 127.525 29.936 127.261 29.936H124.276V34.4H121.772V24.2336Z" fill="#E3AC75"/>
<path d="M134.792 34.4V24.2336H137.168V30.7424L143.534 25.3856V24.2336H145.91V34.4H143.534V27.8336L137.168 33.1904V34.4H134.792Z" fill="#E3AC75"/>
<path d="M150.514 34.4H148.194V32.3408H150.514V34.4Z" fill="#E3AC75"/>
<path d="M152.791 24.2336H159.001C159.784 24.2336 160.444 24.3248 160.981 24.5072C161.528 24.68 161.962 25.0448 162.283 25.6016C162.575 26.0816 162.721 26.6864 162.721 27.416C162.721 28.28 162.5 28.9712 162.056 29.4896C161.67 29.9408 161.227 30.2336 160.727 30.368C160.227 30.5024 159.562 30.5696 158.732 30.5696H155.252V34.4H152.791V24.2336ZM155.252 25.9904V28.784H158.322C158.907 28.784 159.312 28.736 159.539 28.64C160.001 28.448 160.232 28.04 160.232 27.416C160.232 27.0416 160.128 26.7104 159.92 26.4224C159.713 26.1344 159.378 25.9904 158.916 25.9904H155.252Z" fill="#E3AC75"/>
<path d="M171.944 23.9456V25.2992C173.038 25.2992 173.958 25.3904 174.703 25.5728C175.448 25.7456 176.023 26.0144 176.428 26.3792C176.843 26.744 177.136 27.1568 177.305 27.6176C177.475 28.0784 177.56 28.6352 177.56 29.288C177.56 29.9024 177.475 30.4304 177.305 30.872C177.136 31.3136 176.843 31.712 176.428 32.0672C176.013 32.4128 175.433 32.672 174.688 32.8448C173.943 33.0176 173.029 33.104 171.944 33.104V34.544H169.426V33.104C168.342 33.104 167.427 33.0176 166.682 32.8448C165.937 32.672 165.357 32.4128 164.942 32.0672C164.527 31.712 164.235 31.3136 164.065 30.872C163.895 30.4304 163.81 29.9024 163.81 29.288C163.81 28.6352 163.895 28.0784 164.065 27.6176C164.235 27.1568 164.522 26.744 164.928 26.3792C165.343 26.0144 165.923 25.7456 166.668 25.5728C167.413 25.3904 168.332 25.2992 169.426 25.2992V23.9456H171.944ZM169.497 27.0704C168.29 27.0704 167.455 27.2432 166.993 27.5888C166.541 27.9344 166.314 28.472 166.314 29.2016C166.314 29.9216 166.545 30.4592 167.007 30.8144C167.469 31.16 168.299 31.3328 169.497 31.3328V27.0704ZM171.873 27.0704V31.3328C173.071 31.3328 173.901 31.16 174.363 30.8144C174.825 30.4592 175.056 29.9216 175.056 29.2016C175.056 28.472 174.825 27.9344 174.363 27.5888C173.91 27.2432 173.081 27.0704 171.873 27.0704Z" fill="#E3AC75"/>
</svg>
