<svg width="118" height="92" viewBox="0 0 118 92" fill="none" xmlns="http://www.w3.org/2000/svg">
<path d="M9.77729 65.3789H6.12301V73.5491H3.65427V65.3789H0V63.5349H9.77729V65.3789Z" fill="#E3AC75"/>
<path d="M20.7622 73.5491H11.3057V63.5349H20.4833V65.3363H13.7745V67.5917H20.2601V69.3789H13.7745V71.7619H20.7622V73.5491Z" fill="#E3AC75"/>
<path d="M22.6311 63.5349H28.7541C29.5259 63.5349 30.1768 63.6247 30.7068 63.8044C31.2461 63.9746 31.6738 64.334 31.99 64.8824C32.2782 65.3552 32.4223 65.951 32.4223 66.6697C32.4223 67.5207 32.2038 68.2016 31.7668 68.7122C31.3856 69.1567 30.9486 69.4451 30.4557 69.5775C29.9629 69.7099 29.3074 69.7761 28.4891 69.7761H25.058V73.5491H22.6311V63.5349ZM25.058 65.2654V68.0172H28.0846C28.6611 68.0172 29.061 67.9699 29.2841 67.8753C29.7398 67.6862 29.9676 67.2843 29.9676 66.6697C29.9676 66.3009 29.8653 65.9746 29.6607 65.6909C29.4561 65.4072 29.1261 65.2654 28.6704 65.2654H25.058Z" fill="#E3AC75"/>
<path d="M34.2561 63.5349H40.3791C41.1509 63.5349 41.8018 63.6247 42.3318 63.8044C42.8711 63.9746 43.2989 64.334 43.615 64.8824C43.9033 65.3552 44.0474 65.951 44.0474 66.6697C44.0474 67.5207 43.8289 68.2016 43.3918 68.7122C43.0106 69.1567 42.5736 69.4451 42.0808 69.5775C41.5879 69.7099 40.9324 69.7761 40.1141 69.7761H36.683V73.5491H34.2561V63.5349ZM36.683 65.2654V68.0172H39.7097C40.2862 68.0172 40.686 67.9699 40.9092 67.8753C41.3648 67.6862 41.5926 67.2843 41.5926 66.6697C41.5926 66.3009 41.4903 65.9746 41.2857 65.6909C41.0812 65.4072 40.7511 65.2654 40.2955 65.2654H36.683Z" fill="#E3AC75"/>
<path d="M45.5815 73.5491V63.5349H47.9247V69.9463L54.2011 64.6697V63.5349H56.5443V73.5491H54.2011V67.081L47.9247 72.3576V73.5491H45.5815Z" fill="#E3AC75"/>
<path d="M67.8479 65.3789H64.1936V73.5491H61.7249V65.3789H58.0706V63.5349H67.8479V65.3789Z" fill="#E3AC75"/>
<path d="M68.4939 68.542C68.4939 67.6058 68.6612 66.7879 68.996 66.0881C69.3307 65.3789 69.7817 64.8257 70.3489 64.4285C70.9254 64.0219 71.5577 63.7193 72.2458 63.5207C72.9432 63.3221 73.687 63.2228 74.4774 63.2228C75.2864 63.2228 76.0349 63.3127 76.723 63.4923C77.4203 63.672 78.0619 63.9557 78.6477 64.3434C79.2428 64.7311 79.7124 65.2749 80.0565 65.9746C80.4005 66.6744 80.5725 67.4971 80.5725 68.4427C80.5725 70.126 80.0472 71.4546 78.9964 72.4286C77.955 73.3931 76.4766 73.8754 74.5611 73.8754C72.6456 73.8754 71.1532 73.3931 70.0839 72.4286C69.0239 71.464 68.4939 70.1685 68.4939 68.542ZM71.0323 68.6129C71.0323 69.0385 71.0974 69.4498 71.2276 69.847C71.3578 70.2347 71.5531 70.6035 71.8134 70.9534C72.0831 71.2938 72.4503 71.568 72.9153 71.7761C73.3895 71.9747 73.9288 72.074 74.5332 72.074C75.1469 72.074 75.6816 71.9747 76.1372 71.7761C76.5928 71.568 76.9368 71.3269 77.1693 71.0527C77.4111 70.769 77.6017 70.4475 77.7411 70.0881C77.8899 69.7288 77.9783 69.4356 78.0062 69.2087C78.0433 68.9723 78.0619 68.7548 78.0619 68.5562C78.0619 67.5917 77.7504 66.7642 77.1275 66.0739C76.5138 65.3742 75.649 65.0243 74.5332 65.0243C73.3988 65.0243 72.5294 65.3836 71.925 66.1023C71.3299 66.8115 71.0323 67.6484 71.0323 68.6129Z" fill="#E3AC75"/>
<path d="M82.595 63.5349H88.718C89.4898 63.5349 90.1407 63.6247 90.6707 63.8044C91.21 63.9746 91.6377 64.334 91.9539 64.8824C92.2421 65.3552 92.3863 65.951 92.3863 66.6697C92.3863 67.5207 92.1678 68.2016 91.7307 68.7122C91.3495 69.1567 90.9125 69.4451 90.4196 69.5775C89.9268 69.7099 89.2713 69.7761 88.453 69.7761H85.0219V73.5491H82.595V63.5349ZM85.0219 65.2654V68.0172H88.0485C88.6251 68.0172 89.0249 67.9699 89.2481 67.8753C89.7037 67.6862 89.9315 67.2843 89.9315 66.6697C89.9315 66.3009 89.8292 65.9746 89.6246 65.6909C89.4201 65.4072 89.09 65.2654 88.6343 65.2654H85.0219Z" fill="#E3AC75"/>
<path d="M93.9204 73.5491V63.5349H96.2636V69.9463L102.54 64.6697V63.5349H104.883V73.5491H102.54V67.081L96.2636 72.3576V73.5491H93.9204Z" fill="#E3AC75"/>
<path d="M115.531 67.8612V65.3789H111.542C110.631 65.3789 110.175 65.8091 110.175 66.6697C110.175 67.464 110.631 67.8612 111.542 67.8612H115.531ZM118 63.5349V73.5491H115.531V69.6059H112.435C112.109 69.6059 111.817 69.6579 111.556 69.7619C111.305 69.8564 111.105 69.9699 110.956 70.1023C110.817 70.2252 110.691 70.4002 110.58 70.6271C110.468 70.8541 110.389 71.0527 110.343 71.2229C110.296 71.3836 110.245 71.5917 110.189 71.847C110.143 72.0929 110.096 72.2915 110.05 72.4428C110.013 72.5941 109.934 72.7785 109.813 72.9959C109.701 73.2134 109.557 73.3978 109.38 73.5491H106.675C106.963 73.2844 107.205 72.9912 107.4 72.6697C107.595 72.3482 107.721 72.0976 107.776 71.9179C107.832 71.7383 107.902 71.4924 107.986 71.1803C108.051 70.9156 108.106 70.7075 108.153 70.5562C108.209 70.3955 108.288 70.1969 108.39 69.9605C108.502 69.7241 108.641 69.5349 108.809 69.3931C108.976 69.2512 109.167 69.152 109.38 69.0952C108.813 68.9817 108.39 68.7217 108.111 68.3151C107.841 67.899 107.707 67.3978 107.707 66.8115C107.707 65.7335 108.018 64.9202 108.641 64.3718C109.264 63.8139 110.087 63.5349 111.11 63.5349H118Z" fill="#E3AC75"/>
<path d="M0.906594 91.6738V81.6595H3.2498V88.0709L9.52623 82.7943V81.6595H11.8694V91.6738H9.52623V85.2056L3.2498 90.4823V91.6738H0.906594Z" fill="#E3AC75"/>
<path d="M24.763 91.6738H22.2943V83.5035H16.771V91.6738H14.3023V81.6595H24.763V91.6738Z" fill="#E3AC75"/>
<path d="M26.7338 86.6666C26.7338 85.7305 26.9012 84.9125 27.2359 84.2127C27.5706 83.5035 28.0216 82.9503 28.5888 82.5531C29.1653 82.1465 29.7976 81.8439 30.4857 81.6453C31.1831 81.4467 31.927 81.3474 32.7173 81.3474C33.5263 81.3474 34.2748 81.4373 34.9629 81.617C35.6603 81.7966 36.3019 82.0803 36.8877 82.468C37.4828 82.8557 37.9523 83.3995 38.2964 84.0992C38.6404 84.799 38.8124 85.6217 38.8124 86.5673C38.8124 88.2506 38.2871 89.5792 37.2364 90.5532C36.1949 91.5177 34.7165 92 32.801 92C30.8855 92 29.3931 91.5177 28.3238 90.5532C27.2638 89.5886 26.7338 88.2931 26.7338 86.6666ZM29.2723 86.7376C29.2723 87.1631 29.3373 87.5744 29.4675 87.9716C29.5977 88.3593 29.793 88.7281 30.0533 89.078C30.323 89.4184 30.6903 89.6927 31.1552 89.9007C31.6294 90.0993 32.1687 90.1986 32.7731 90.1986C33.3868 90.1986 33.9215 90.0993 34.3771 89.9007C34.8327 89.6927 35.1768 89.4515 35.4092 89.1773C35.651 88.8936 35.8416 88.5721 35.9811 88.2127C36.1298 87.8534 36.2182 87.5603 36.2461 87.3333C36.2833 87.0969 36.3019 86.8794 36.3019 86.6808C36.3019 85.7163 35.9904 84.8888 35.3674 84.1985C34.7537 83.4988 33.8889 83.1489 32.7731 83.1489C31.6387 83.1489 30.7693 83.5082 30.1649 84.2269C29.5698 84.9361 29.2723 85.773 29.2723 86.7376Z" fill="#E3AC75"/>
<path d="M49.7056 83.5035H46.0514V91.6738H43.5826V83.5035H39.9284V81.6595H49.7056V83.5035Z" fill="#E3AC75"/>
<path d="M60.6906 91.6738H51.2341V81.6595H60.4116V83.4609H53.7028V85.7163H60.1885V87.5035H53.7028V89.8865H60.6906V91.6738Z" fill="#E3AC75"/>
<path d="M62.5595 81.6595H65.0282V85.4326H67.8038C68.1106 85.4326 68.3803 85.39 68.6127 85.3049C68.8545 85.2104 69.0451 85.1063 69.1846 84.9929C69.3241 84.8794 69.4543 84.7092 69.5751 84.4822C69.7053 84.2553 69.7936 84.0709 69.8401 83.929C69.8959 83.7872 69.9657 83.5744 70.0494 83.2907C70.2632 82.6193 70.5096 82.0756 70.7886 81.6595H73.341C73.248 81.773 73.1597 81.8912 73.076 82.0141C73.0016 82.1276 72.9319 82.2458 72.8668 82.3687C72.8017 82.4917 72.7412 82.6004 72.6855 82.695C72.639 82.7895 72.5878 82.9077 72.532 83.0496C72.4855 83.182 72.4483 83.2813 72.4205 83.3475C72.4019 83.4137 72.3693 83.5129 72.3228 83.6453C72.2856 83.7777 72.2624 83.8581 72.2531 83.8865C72.2345 83.9338 72.1973 84.0425 72.1415 84.2127C72.0857 84.3829 72.0439 84.5059 72.016 84.5815C71.9974 84.6477 71.9555 84.7612 71.8904 84.9219C71.8346 85.0732 71.7789 85.1867 71.7231 85.2624C71.6766 85.338 71.6068 85.4373 71.5139 85.5602C71.4302 85.6737 71.3418 85.7683 71.2489 85.8439C71.1559 85.9101 71.0443 85.981 70.9141 86.0567C70.7839 86.1229 70.6444 86.1796 70.4957 86.2269C70.7281 86.2742 70.942 86.3498 71.1373 86.4539C71.3325 86.5484 71.4953 86.6477 71.6254 86.7517C71.7556 86.8463 71.8765 86.9881 71.9881 87.1773C72.109 87.3664 72.1973 87.5177 72.2531 87.6312C72.3182 87.7447 72.3833 87.9243 72.4483 88.1702C72.5227 88.416 72.5692 88.5863 72.5878 88.6808C72.6157 88.7659 72.6576 88.9361 72.7134 89.1915C72.9086 90.0236 73.2573 90.8511 73.7594 91.6738H71.207C70.8258 91.1158 70.5422 90.4255 70.3562 89.6028C70.3004 89.357 70.2586 89.1915 70.2307 89.1064C70.2121 89.0213 70.1656 88.87 70.0912 88.6525C70.0261 88.435 69.961 88.2837 69.8959 88.1986C69.8401 88.104 69.7472 87.9858 69.617 87.8439C69.4961 87.6926 69.3613 87.5886 69.2125 87.5319C69.073 87.4657 68.8963 87.409 68.6825 87.3617C68.4686 87.3049 68.2315 87.2766 67.9711 87.2766H65.0282V91.6738H62.5595V81.6595Z" fill="#E3AC75"/>
<path d="M75.3968 91.6738V81.6595H77.7399V88.0709L84.0164 82.7943V81.6595H86.3596V91.6738H84.0164V85.2056L77.7399 90.4823V91.6738H75.3968Z" fill="#E3AC75"/>
<path d="M90.8986 91.6738H88.6111V89.6454H90.8986V91.6738Z" fill="#E3AC75"/>
<path d="M93.144 81.6595H99.267C100.039 81.6595 100.69 81.7493 101.22 81.929C101.759 82.0992 102.187 82.4586 102.503 83.007C102.791 83.4798 102.935 84.0756 102.935 84.7943C102.935 85.6453 102.717 86.3262 102.28 86.8368C101.898 87.2813 101.461 87.5697 100.969 87.7021C100.476 87.8345 99.8203 87.9007 99.002 87.9007H95.5709V91.6738H93.144V81.6595ZM95.5709 83.39V86.1418H98.5975C99.174 86.1418 99.5739 86.0945 99.797 86C100.253 85.8108 100.48 85.4089 100.48 84.7943C100.48 84.4255 100.378 84.0992 100.174 83.8155C99.9691 83.5319 99.639 83.39 99.1833 83.39H95.5709Z" fill="#E3AC75"/>
<path d="M112.029 81.3758V82.7092C113.108 82.7092 114.014 82.799 114.749 82.9787C115.483 83.1489 116.051 83.4137 116.45 83.773C116.86 84.1323 117.148 84.539 117.315 84.9929C117.483 85.4468 117.566 85.9952 117.566 86.6383C117.566 87.2435 117.483 87.7636 117.315 88.1986C117.148 88.6335 116.86 89.026 116.45 89.3759C116.041 89.7163 115.469 89.9716 114.735 90.1418C114 90.312 113.098 90.3971 112.029 90.3971V91.8156H109.546V90.3971C108.477 90.3971 107.575 90.312 106.84 90.1418C106.106 89.9716 105.534 89.7163 105.125 89.3759C104.716 89.026 104.428 88.6335 104.26 88.1986C104.093 87.7636 104.009 87.2435 104.009 86.6383C104.009 85.9952 104.093 85.4468 104.26 84.9929C104.428 84.539 104.711 84.1323 105.111 83.773C105.52 83.4137 106.092 83.1489 106.827 82.9787C107.561 82.799 108.468 82.7092 109.546 82.7092V81.3758H112.029ZM109.616 84.4539C108.426 84.4539 107.603 84.6241 107.147 84.9645C106.701 85.3049 106.478 85.8345 106.478 86.5532C106.478 87.2624 106.706 87.7919 107.161 88.1418C107.617 88.4822 108.435 88.6525 109.616 88.6525V84.4539ZM111.959 84.4539V88.6525C113.14 88.6525 113.958 88.4822 114.414 88.1418C114.87 87.7919 115.097 87.2624 115.097 86.5532C115.097 85.8345 114.87 85.3049 114.414 84.9645C113.968 84.6241 113.149 84.4539 111.959 84.4539Z" fill="#E3AC75"/>
<path d="M37.9829 0H79.8258V8.5071H37.9829V0Z" fill="#E3AC75"/>
<path d="M45.9954 30.8942H71.8133V39.4013H45.9954V30.8942Z" fill="#E3AC75"/>
<path d="M79.8258 8.5071V14.7755H71.3682V8.5071H79.8258Z" fill="#E3AC75"/>
<path d="M46.4405 8.5071V14.7755H37.9829L37.9829 8.5071H46.4405Z" fill="#E3AC75"/>
<path d="M53.5627 8.5071H63.8009L53.5627 19.7007V8.5071Z" fill="#E3AC75"/>
<path d="M63.8009 30.8942H53.5627L63.8009 19.7007V30.8942Z" fill="#E3AC75"/>
</svg>
