<svg width="30" height="30" viewBox="0 0 30 30" fill="none" xmlns="http://www.w3.org/2000/svg">
<rect x="0.5" y="0.5" width="29" height="29" rx="14.5" stroke="white"/>
<mask id="path-2-inside-1_384_808" fill="white">
<path d="M13.8747 10.2002L18.5997 15.0002L17.9247 15.6859L13.1997 10.8859L13.8747 10.2002Z"/>
<path d="M18.5997 15.0002L13.8747 19.8002L13.1997 19.1145L17.9247 14.3145L18.5997 15.0002Z"/>
</mask>
<path d="M13.8747 10.2002L18.5997 15.0002L17.9247 15.6859L13.1997 10.8859L13.8747 10.2002Z" fill="white"/>
<path d="M18.5997 15.0002L13.8747 19.8002L13.1997 19.1145L17.9247 14.3145L18.5997 15.0002Z" fill="white"/>
<path d="M13.8747 10.2002L14.5874 9.49868L13.8747 8.77471L13.1621 9.49868L13.8747 10.2002ZM18.5997 15.0002L19.3124 15.7017L20.0029 15.0002L19.3124 14.2987L18.5997 15.0002ZM17.9247 15.6859L17.2121 16.3874L17.9247 17.1114L18.6374 16.3874L17.9247 15.6859ZM13.1997 10.8859L12.4871 10.1844L11.7965 10.8859L12.4871 11.5874L13.1997 10.8859ZM13.8747 19.8002L13.1621 20.5017L13.8747 21.2257L14.5874 20.5017L13.8747 19.8002ZM13.1997 19.1145L12.4871 18.413L11.7965 19.1145L12.4871 19.816L13.1997 19.1145ZM17.9247 14.3145L18.6374 13.613L17.9247 12.889L17.2121 13.613L17.9247 14.3145ZM13.1621 10.9017L17.8871 15.7017L19.3124 14.2987L14.5874 9.49868L13.1621 10.9017ZM17.8871 14.2987L17.2121 14.9844L18.6374 16.3874L19.3124 15.7017L17.8871 14.2987ZM18.6374 14.9844L13.9124 10.1844L12.4871 11.5874L17.2121 16.3874L18.6374 14.9844ZM13.9124 11.5874L14.5874 10.9017L13.1621 9.49868L12.4871 10.1844L13.9124 11.5874ZM17.8871 14.2987L13.1621 19.0987L14.5874 20.5017L19.3124 15.7017L17.8871 14.2987ZM14.5874 19.0987L13.9124 18.413L12.4871 19.816L13.1621 20.5017L14.5874 19.0987ZM13.9124 19.816L18.6374 15.016L17.2121 13.613L12.4871 18.413L13.9124 19.816ZM17.2121 15.016L17.8871 15.7017L19.3124 14.2987L18.6374 13.613L17.2121 15.016Z" fill="white" mask="url(#path-2-inside-1_384_808)"/>
</svg>
