<svg width="20" height="20" viewBox="0 0 20 20" fill="none" xmlns="http://www.w3.org/2000/svg">
<rect x="0.5" y="0.5" width="19" height="19" rx="9.5" stroke="#E3AC75"/>
<mask id="path-2-inside-1_235_1984" fill="white">
<path d="M9.25005 6.80005L12.4 10L11.95 10.4572L8.80005 7.25719L9.25005 6.80005Z"/>
<path d="M12.4 10L9.25005 13.2L8.80005 12.7429L11.95 9.54291L12.4 10Z"/>
</mask>
<path d="M9.25005 6.80005L12.4 10L11.95 10.4572L8.80005 7.25719L9.25005 6.80005Z" fill="white"/>
<path d="M12.4 10L9.25005 13.2L8.80005 12.7429L11.95 9.54291L12.4 10Z" fill="white"/>
<path d="M9.25005 6.80005L9.9627 6.09853L9.25005 5.37457L8.5374 6.09853L9.25005 6.80005ZM12.4 10L13.1127 10.7016L13.8033 10L13.1127 9.29853L12.4 10ZM11.95 10.4572L11.2374 11.1587L11.95 11.8827L12.6627 11.1587L11.95 10.4572ZM8.80005 7.25719L8.0874 6.55567L7.39684 7.25719L8.0874 7.95871L8.80005 7.25719ZM9.25005 13.2L8.5374 13.9016L9.25005 14.6255L9.9627 13.9016L9.25005 13.2ZM8.80005 12.7429L8.0874 12.0414L7.39684 12.7429L8.0874 13.4444L8.80005 12.7429ZM11.95 9.54291L12.6627 8.84139L11.95 8.11742L11.2374 8.84139L11.95 9.54291ZM8.5374 7.50157L11.6874 10.7016L13.1127 9.29853L9.9627 6.09853L8.5374 7.50157ZM11.6874 9.29853L11.2374 9.75567L12.6627 11.1587L13.1127 10.7016L11.6874 9.29853ZM12.6627 9.75567L9.5127 6.55567L8.0874 7.95871L11.2374 11.1587L12.6627 9.75567ZM9.5127 7.95871L9.9627 7.50157L8.5374 6.09853L8.0874 6.55567L9.5127 7.95871ZM11.6874 9.29853L8.5374 12.4985L9.9627 13.9016L13.1127 10.7016L11.6874 9.29853ZM9.9627 12.4985L9.5127 12.0414L8.0874 13.4444L8.5374 13.9016L9.9627 12.4985ZM9.5127 13.4444L12.6627 10.2444L11.2374 8.84139L8.0874 12.0414L9.5127 13.4444ZM11.2374 10.2444L11.6874 10.7016L13.1127 9.29853L12.6627 8.84139L11.2374 10.2444Z" fill="#E3AC75" mask="url(#path-2-inside-1_235_1984)"/>
</svg>
