<svg width="48" height="48" viewBox="0 0 48 48" fill="none" xmlns="http://www.w3.org/2000/svg">
<circle cx="24.0002" cy="24" r="23" stroke="#333333" stroke-width="2"/>
<g clip-path="url(#clip0_235_5232)">
<path d="M35.873 29.5199C35.844 29.4573 35.8169 29.4053 35.7917 29.3637C35.3753 28.6138 34.5796 27.6933 33.405 26.6019L33.3802 26.5769L33.3677 26.5647L33.3552 26.5521H33.3426C32.8095 26.0439 32.4719 25.7023 32.3306 25.5273C32.0719 25.1941 32.0139 24.8568 32.1553 24.515C32.2552 24.2568 32.6304 23.7114 33.28 22.8782C33.6216 22.4367 33.8923 22.0828 34.0921 21.8161C35.5334 19.9 36.1582 18.6756 35.9665 18.1424L35.8921 18.0178C35.8421 17.9428 35.713 17.8741 35.5049 17.8115C35.2964 17.7491 35.0299 17.7388 34.705 17.7804L31.1063 17.8052C31.048 17.7846 30.9647 17.7865 30.8563 17.8115C30.7479 17.8366 30.6938 17.8491 30.6938 17.8491L30.6311 17.8804L30.5814 17.918C30.5397 17.9429 30.4939 17.9866 30.4439 18.0491C30.3941 18.1114 30.3525 18.1845 30.3192 18.2678C29.9274 19.2758 29.482 20.213 28.982 21.0793C28.6738 21.5959 28.3907 22.0436 28.1322 22.4226C27.874 22.8016 27.6574 23.0807 27.4826 23.2597C27.3075 23.4388 27.1495 23.5824 27.0076 23.6908C26.8659 23.7992 26.7578 23.845 26.6829 23.8283C26.6078 23.8115 26.5372 23.7949 26.4702 23.7783C26.3537 23.7032 26.2599 23.6012 26.1893 23.4721C26.1183 23.343 26.0705 23.1805 26.0455 22.9847C26.0206 22.7888 26.0059 22.6203 26.0017 22.4786C25.9978 22.3371 25.9996 22.137 26.0081 21.8788C26.0167 21.6204 26.0206 21.4456 26.0206 21.354C26.0206 21.0373 26.0268 20.6937 26.0392 20.323C26.0518 19.9523 26.062 19.6586 26.0705 19.4422C26.079 19.2256 26.0829 18.9964 26.0829 18.7549C26.0829 18.5133 26.0682 18.3238 26.0392 18.1863C26.0105 18.0489 25.9664 17.9156 25.9083 17.7864C25.8499 17.6573 25.7644 17.5574 25.6521 17.4865C25.5397 17.4157 25.3999 17.3595 25.2336 17.3177C24.792 17.2178 24.2297 17.1637 23.5465 17.1553C21.9971 17.1387 21.0015 17.2388 20.56 17.4554C20.385 17.5469 20.2267 17.6719 20.0852 17.8301C19.9352 18.0134 19.9143 18.1135 20.0226 18.1299C20.5225 18.2048 20.8764 18.384 21.0847 18.6672L21.1597 18.8173C21.2181 18.9255 21.2764 19.1172 21.3347 19.3921C21.393 19.667 21.4306 19.971 21.4471 20.3041C21.4887 20.9123 21.4887 21.433 21.4471 21.8661C21.4054 22.2994 21.366 22.6367 21.3284 22.8783C21.2908 23.1199 21.2346 23.3156 21.1597 23.4655C21.0847 23.6155 21.0347 23.7071 21.0097 23.7404C20.9847 23.7737 20.9639 23.7946 20.9473 23.8029C20.839 23.8443 20.7264 23.8655 20.6099 23.8655C20.4931 23.8655 20.3516 23.8071 20.185 23.6904C20.0185 23.5737 19.8457 23.4135 19.6665 23.2093C19.4874 23.0052 19.2854 22.7198 19.0603 22.3533C18.8355 21.9868 18.6022 21.5537 18.3606 21.0538L18.1608 20.6914C18.0358 20.4582 17.8651 20.1186 17.6485 19.673C17.4318 19.2273 17.2402 18.7961 17.0737 18.3796C17.0071 18.2046 16.9071 18.0714 16.7738 17.9798L16.7113 17.9422C16.6697 17.9089 16.603 17.8736 16.5114 17.836C16.4197 17.7984 16.324 17.7714 16.224 17.7548L12.8001 17.7797C12.4503 17.7797 12.2129 17.8589 12.0879 18.0172L12.0378 18.0921C12.0128 18.1338 12.0002 18.2005 12.0002 18.2921C12.0002 18.3838 12.0252 18.4963 12.0753 18.6295C12.5751 19.8042 13.1186 20.9371 13.7059 22.0284C14.2932 23.1197 14.8035 23.9987 15.2366 24.6648C15.6697 25.3313 16.1112 25.9604 16.5611 26.5516C17.011 27.1432 17.3088 27.5222 17.4545 27.6888C17.6004 27.8556 17.7149 27.9803 17.7982 28.0636L18.1107 28.3635C18.3106 28.5634 18.6042 28.8029 18.9916 29.0819C19.3791 29.3611 19.808 29.636 20.2787 29.907C20.7494 30.1775 21.2971 30.3982 21.922 30.569C22.5467 30.7399 23.1548 30.8085 23.7464 30.7754H25.1834C25.4748 30.7502 25.6956 30.6586 25.8457 30.5004L25.8954 30.4378C25.9289 30.388 25.9602 30.3108 25.9891 30.2069C26.0183 30.1027 26.0328 29.988 26.0328 29.8632C26.0243 29.5051 26.0516 29.1823 26.1139 28.8949C26.1762 28.6076 26.2472 28.391 26.3265 28.2452C26.4059 28.0994 26.4954 27.9764 26.5951 27.8767C26.695 27.7768 26.7661 27.7163 26.8079 27.6955C26.8494 27.6745 26.8825 27.6603 26.9075 27.6517C27.1074 27.5851 27.3427 27.6496 27.6137 27.8456C27.8845 28.0413 28.1385 28.2831 28.3761 28.5704C28.6135 28.8579 28.8988 29.1805 29.2319 29.5387C29.5653 29.8969 29.8568 30.1633 30.1066 30.3385L30.3564 30.4884C30.5233 30.5885 30.7399 30.6801 31.0065 30.7634C31.2727 30.8466 31.5059 30.8675 31.7061 30.8258L34.9049 30.776C35.2213 30.776 35.4675 30.7236 35.6421 30.6196C35.8171 30.5155 35.921 30.4008 35.9546 30.276C35.988 30.1511 35.9898 30.0094 35.9609 29.8509C35.9313 29.6929 35.9021 29.5824 35.873 29.5199Z" fill="#333333"/>
</g>
<defs>
<clipPath id="clip0_235_5232">
<rect width="24" height="24" fill="white" transform="translate(12.0002 12)"/>
</clipPath>
</defs>
</svg>
